<svg xmlns="http://www.w3.org/2000/svg" xmlns:xlink="http://www.w3.org/1999/xlink" width="321.256" height="205.174" viewBox="0 0 321.256 205.174">
  <defs>
    <linearGradient id="linear-gradient" x1="0.361" y1="0.918" x2="0" y2="-0.147" gradientUnits="objectBoundingBox">
      <stop offset="0" stop-color="#aa8804"/>
      <stop offset="1" stop-color="#ffe47a"/>
    </linearGradient>
    <linearGradient id="linear-gradient-5" x1="0.453" y1="0.901" x2="0.511" y2="0.412" gradientUnits="objectBoundingBox">
      <stop offset="0" stop-color="#006838"/>
      <stop offset="1" stop-color="#47e51d"/>
    </linearGradient>
    <linearGradient id="linear-gradient-7" x1="0.473" y1="0.947" x2="0.506" y2="0.402" xlink:href="#linear-gradient-5"/>
    <linearGradient id="linear-gradient-8" y1="0.5" x2="1" y2="0.5" gradientUnits="objectBoundingBox">
      <stop offset="0" stop-color="#700d2a" stop-opacity="0.694"/>
      <stop offset="0.565" stop-color="#dd4536"/>
      <stop offset="1" stop-color="#f7a458"/>
    </linearGradient>
    <linearGradient id="linear-gradient-9" y1="0.5" x2="1" y2="0.5" gradientUnits="objectBoundingBox">
      <stop offset="0" stop-color="#700d2a"/>
      <stop offset="0.565" stop-color="#dd4536"/>
      <stop offset="1" stop-color="#f7a458"/>
    </linearGradient>
    <linearGradient id="linear-gradient-11" y1="0.5" x2="1" y2="0.5" gradientUnits="objectBoundingBox">
      <stop offset="0" stop-color="#e4f2ff"/>
      <stop offset="1" stop-color="#91d0c5"/>
    </linearGradient>
    <linearGradient id="linear-gradient-12" x1="0.5" y1="0.027" x2="0.5" y2="1.002" gradientUnits="objectBoundingBox">
      <stop offset="0" stop-color="#1b4e9b"/>
      <stop offset="0.841" stop-color="#1d5ca6"/>
      <stop offset="1" stop-color="#27bbee"/>
    </linearGradient>
    <linearGradient id="linear-gradient-14" y1="0.5" x2="1" y2="0.5" gradientUnits="objectBoundingBox">
      <stop offset="0" stop-color="#23538c"/>
      <stop offset="1" stop-color="#230482"/>
    </linearGradient>
  </defs>
  <g id="Group_45" data-name="Group 45" transform="translate(0 0)" opacity="0.675" style="mix-blend-mode: normal;isolation: isolate">
    <g id="Group_16" data-name="Group 16" transform="translate(0 79.722)">
      <path id="Path_10" data-name="Path 10" d="M133.463,299.012c-6.16-2.42.66,9.24-.44,7.92s-13.64-24.42-17.6-20.24,2.86,10.779,1.98,10.34-13.421-14.961-13.861-7.48,11.661,14.52,11.661,14.52-10.561-2.42-5.94,2.2,15.181,7.7,15.181,7.7-11-1.1-6.16,2.64,15.18,5.94,15.18,5.94-9.9.22-4.84,1.98,20.241,6.159,20.241,6.159S139.623,301.432,133.463,299.012Z" transform="translate(-103.531 -255.661)" fill="url(#linear-gradient)"/>
      <path id="Path_11" data-name="Path 11" d="M169.784,306.483c-2.2.88,1.1-2.2,1.76-9.9s-12.981,14.081-14.521,15.181.44-1.1-.88-7.26-13.64,25.3-13.64,25.3,23.1-6.38,27.72-7.919-2.2-3.74-2.2-3.74,10.341.66,16.28-1.76-6.379-4.18-7.7-5.28,6.159-1.54,11.219-10.56S171.984,305.6,169.784,306.483Z" transform="translate(-97.611 -254.331)" fill="url(#linear-gradient)"/>
      <path id="Path_12" data-name="Path 12" d="M170.579,291.914c-1.98.88,5.72-9.02,6.38-15.621s-13.861,13.861-15.181,16.5,1.1-4.62-.88-11.221-8.36,19.14-9.46,21.56-.219-2.42-3.079-9.239-5.5,37.84-5.28,38.94c0,0,10.339-9.679,13.42-15.4s-1.32-4.62-1.32-4.62,7.26-3.52,11.221-6.82-3.74-5.28-3.52-5.94,12.1-4.62,16.281-9.459S172.559,291.034,170.579,291.914Z" transform="translate(-97.526 -257.362)" fill="url(#linear-gradient)"/>
      <path id="Path_13" data-name="Path 13" d="M142.925,309.041a75.31,75.31,0,0,0,2.86-13.2c.44-5.5-5.06-1.759-5.06-1.759s1.32-10.12-.44-17.6-2.86,7.04-3.52,7.92-1.76-3.74-7.92-10.781,4.4,16.281,5.06,19.581-1.32-1.76-8.36-3.96,9.46,22.22,9.46,23.32-1.1-1.76-6.6-3.52,16.5,22,17.381,23.76c0,0,1.76-15.62,2.42-21.78S142.925,309.041,142.925,309.041Z" transform="translate(-100.453 -257.769)" fill="url(#linear-gradient)"/>
      <path id="Path_14" data-name="Path 14" d="M140.568,295.355l.03.065C140.717,295.658,140.718,295.585,140.568,295.355Z" transform="translate(-97.905 -254.268)" fill="url(#linear-gradient-5)"/>
      <path id="Path_15" data-name="Path 15" d="M149.823,273.117s-.659-8.8-5.279-12.979-1.54,22-1.76,23.32-1.1-3.08-6.16-4.84c-4.99-1.736,4.135,20.691,4.81,22.155.15.23.149.3.03.065l-.03-.065c-.4-.62-1.939-2.414-5.47-2.574-4.84-.22,7.92,36.079,7.92,36.74,0,0,8.58-9.679,9.46-14.08s-5.06-1.54-5.06-1.54,4.619-4.18,7.919-13.2-6.819-2.42-7.039-3.08,7.479-5.939,9.459-16.94c1.514-8.4-4.291-4.354-7.115-1.973a19.3,19.3,0,0,1-1.464,1.313s.591-.578,1.464-1.313a29.613,29.613,0,0,0,8.655-16.947C161.7,255.517,149.823,273.117,149.823,273.117Z" transform="translate(-98.771 -259.686)" fill="url(#linear-gradient)"/>
      <path id="Path_16" data-name="Path 16" d="M149.507,280.9c-.873.735-1.464,1.313-1.464,1.313A19.291,19.291,0,0,0,149.507,280.9Z" transform="translate(-96.77 -256.464)" fill="url(#linear-gradient-7)"/>
      <g id="Group_15" data-name="Group 15" transform="translate(21.786 71.663)">
        <path id="Path_17" data-name="Path 17" d="M133.2,370.628h26.657L166.2,328.1H126.853Z" transform="translate(-121.775 -320.957)" fill="url(#linear-gradient-8)"/>
        <rect id="Rectangle_7" data-name="Rectangle 7" width="49.507" height="8.886" rx="1.478" fill="url(#linear-gradient-9)"/>
      </g>
    </g>
    <g id="Group_32" data-name="Group 32" transform="translate(261.169 44.43)">
      <g id="Group_31" data-name="Group 31" transform="translate(1.111)">
        <g id="Group_30" data-name="Group 30" transform="translate(10.047)">
          <g id="Group_26" data-name="Group 26" transform="translate(0.293)">
            <path id="Path_18" data-name="Path 18" d="M386.071,233.485l-13.787-4.326a2.4,2.4,0,0,0-3,1.556l-28.963,90.319a2.4,2.4,0,0,0,1.531,3.01l14.285,4.724a2.4,2.4,0,0,0,3.042-1.56l28.467-90.716A2.4,2.4,0,0,0,386.071,233.485Z" transform="translate(-340.203 -229.048)" fill="#84d2e6"/>
            <path id="Path_19" data-name="Path 19" d="M369.281,230.715l-28.963,90.319a2.4,2.4,0,0,0,1.531,3.01l7.645,2.528,30.466-95-7.676-2.409A2.4,2.4,0,0,0,369.281,230.715Z" transform="translate(-340.203 -229.048)" fill="#97deef"/>
            <g id="Group_25" data-name="Group 25" transform="translate(4.057 8.75)">
              <g id="Group_17" data-name="Group 17" transform="translate(21.947)">
                <path id="Path_20" data-name="Path 20" d="M371.445,238.58l-5.979-1.917a.405.405,0,1,0-.248.772l5.979,1.917a.405.405,0,0,0,.248-.772Z" transform="translate(-362.45 -236.644)" fill="#fff"/>
                <path id="Path_21" data-name="Path 21" d="M368.152,239.381l-3.226-1.034a.4.4,0,0,0-.248.771l3.228,1.036a.405.405,0,1,0,.246-.772Z" transform="translate(-362.532 -236.388)" fill="#fff"/>
                <path id="Path_22" data-name="Path 22" d="M367.613,241.064l-3.228-1.036a.405.405,0,1,0-.246.772l3.226,1.036a.405.405,0,0,0,.248-.772Z" transform="translate(-362.614 -236.133)" fill="#fff"/>
                <path id="Path_23" data-name="Path 23" d="M367.041,242.848l-3.228-1.036a.405.405,0,1,0-.246.772l3.226,1.036a.405.405,0,0,0,.248-.772Z" transform="translate(-362.701 -235.862)" fill="#fff"/>
                <path id="Path_24" data-name="Path 24" d="M366.533,244.43l-3.226-1.036a.405.405,0,0,0-.248.772l3.228,1.034a.4.4,0,1,0,.246-.771Z" transform="translate(-362.778 -235.621)" fill="#fff"/>
              </g>
              <g id="Group_18" data-name="Group 18" transform="translate(18.812 9.777)">
                <path id="Path_25" data-name="Path 25" d="M368.723,247.068l-5.979-1.917a.4.4,0,1,0-.248.771l5.979,1.918a.405.405,0,0,0,.248-.772Z" transform="translate(-359.728 -245.132)" fill="#fff"/>
                <path id="Path_26" data-name="Path 26" d="M365.431,247.869l-3.228-1.036a.405.405,0,0,0-.248.772l3.228,1.036a.405.405,0,0,0,.248-.772Z" transform="translate(-359.81 -244.876)" fill="#fff"/>
                <path id="Path_27" data-name="Path 27" d="M364.891,249.552l-3.228-1.036a.405.405,0,1,0-.246.772l3.226,1.034a.4.4,0,0,0,.248-.771Z" transform="translate(-359.892 -244.621)" fill="#fff"/>
                <path id="Path_28" data-name="Path 28" d="M364.319,251.336l-3.228-1.036a.405.405,0,1,0-.246.772l3.226,1.034a.4.4,0,0,0,.248-.771Z" transform="translate(-359.979 -244.35)" fill="#fff"/>
                <path id="Path_29" data-name="Path 29" d="M363.812,252.917l-3.228-1.034a.405.405,0,0,0-.248.772l3.228,1.034a.405.405,0,0,0,.248-.772Z" transform="translate(-360.056 -244.109)" fill="#fff"/>
              </g>
              <g id="Group_19" data-name="Group 19" transform="translate(15.677 19.554)">
                <path id="Path_30" data-name="Path 30" d="M366,255.556l-5.979-1.918a.405.405,0,0,0-.248.772l5.979,1.918a.405.405,0,1,0,.248-.772Z" transform="translate(-357.006 -253.619)" fill="#fff"/>
                <path id="Path_31" data-name="Path 31" d="M362.709,256.357l-3.228-1.035a.405.405,0,1,0-.246.772l3.226,1.034a.4.4,0,0,0,.248-.771Z" transform="translate(-357.088 -253.364)" fill="#fff"/>
                <path id="Path_32" data-name="Path 32" d="M362.169,258.039,358.943,257a.405.405,0,1,0-.248.772l3.226,1.034a.405.405,0,1,0,.248-.772Z" transform="translate(-357.17 -253.108)" fill="#fff"/>
                <path id="Path_33" data-name="Path 33" d="M361.6,259.823l-3.227-1.034a.405.405,0,1,0-.248.772l3.227,1.034a.405.405,0,0,0,.248-.772Z" transform="translate(-357.257 -252.837)" fill="#fff"/>
                <path id="Path_34" data-name="Path 34" d="M361.09,261.4l-3.228-1.034a.405.405,0,0,0-.248.772l3.228,1.034a.405.405,0,0,0,.248-.772Z" transform="translate(-357.334 -252.597)" fill="#fff"/>
              </g>
              <g id="Group_20" data-name="Group 20" transform="translate(12.541 29.331)">
                <path id="Path_35" data-name="Path 35" d="M363.279,264.044l-5.979-1.918a.405.405,0,0,0-.248.772l5.979,1.918a.405.405,0,1,0,.248-.772Z" transform="translate(-354.284 -262.107)" fill="#fff"/>
                <path id="Path_36" data-name="Path 36" d="M359.987,264.844l-3.228-1.034a.405.405,0,1,0-.246.772l3.226,1.034a.405.405,0,0,0,.248-.772Z" transform="translate(-354.366 -261.852)" fill="#fff"/>
                <path id="Path_37" data-name="Path 37" d="M359.447,266.527l-3.226-1.034a.405.405,0,1,0-.248.772L359.2,267.3a.405.405,0,1,0,.248-.772Z" transform="translate(-354.448 -261.596)" fill="#fff"/>
                <path id="Path_38" data-name="Path 38" d="M358.875,268.311l-3.226-1.034a.4.4,0,1,0-.248.771l3.226,1.036a.405.405,0,1,0,.248-.772Z" transform="translate(-354.535 -261.325)" fill="#fff"/>
                <path id="Path_39" data-name="Path 39" d="M358.368,269.893l-3.228-1.034a.4.4,0,1,0-.246.771l3.226,1.036a.405.405,0,0,0,.248-.772Z" transform="translate(-354.612 -261.085)" fill="#fff"/>
              </g>
              <g id="Group_21" data-name="Group 21" transform="translate(9.406 39.108)">
                <path id="Path_40" data-name="Path 40" d="M360.557,272.531l-5.979-1.917a.405.405,0,0,0-.248.772l5.981,1.917a.405.405,0,1,0,.247-.772Z" transform="translate(-351.562 -270.595)" fill="#fff"/>
                <path id="Path_41" data-name="Path 41" d="M357.265,273.332l-3.226-1.034a.405.405,0,1,0-.248.772l3.226,1.034a.405.405,0,0,0,.248-.772Z" transform="translate(-351.644 -270.339)" fill="#fff"/>
                <path id="Path_42" data-name="Path 42" d="M356.725,275.015l-3.226-1.034a.4.4,0,0,0-.248.771l3.227,1.035a.405.405,0,1,0,.248-.772Z" transform="translate(-351.726 -270.084)" fill="#fff"/>
                <path id="Path_43" data-name="Path 43" d="M356.153,276.8l-3.226-1.034a.4.4,0,0,0-.248.771l3.226,1.036a.405.405,0,1,0,.248-.772Z" transform="translate(-351.813 -269.813)" fill="#fff"/>
                <path id="Path_44" data-name="Path 44" d="M355.646,278.381l-3.226-1.036a.405.405,0,1,0-.248.772l3.226,1.035a.405.405,0,0,0,.248-.772Z" transform="translate(-351.89 -269.572)" fill="#fff"/>
              </g>
              <g id="Group_22" data-name="Group 22" transform="translate(6.27 48.885)">
                <path id="Path_45" data-name="Path 45" d="M357.835,281.019l-5.979-1.917a.405.405,0,1,0-.246.772l5.979,1.917a.405.405,0,1,0,.246-.772Z" transform="translate(-348.84 -279.083)" fill="#fff"/>
                <path id="Path_46" data-name="Path 46" d="M354.543,281.82l-3.226-1.036a.405.405,0,1,0-.248.772l3.226,1.036a.405.405,0,1,0,.248-.772Z" transform="translate(-348.922 -278.827)" fill="#fff"/>
                <path id="Path_47" data-name="Path 47" d="M354,283.5l-3.226-1.036a.405.405,0,0,0-.248.772l3.228,1.036A.405.405,0,0,0,354,283.5Z" transform="translate(-349.004 -278.572)" fill="#fff"/>
                <path id="Path_48" data-name="Path 48" d="M353.431,285.287l-3.227-1.036a.405.405,0,0,0-.248.772l3.228,1.034a.4.4,0,1,0,.247-.771Z" transform="translate(-349.091 -278.301)" fill="#fff"/>
                <path id="Path_49" data-name="Path 49" d="M352.924,286.868l-3.226-1.034a.405.405,0,1,0-.248.772l3.227,1.034a.405.405,0,1,0,.248-.772Z" transform="translate(-349.168 -278.06)" fill="#fff"/>
              </g>
              <g id="Group_23" data-name="Group 23" transform="translate(3.135 58.662)">
                <path id="Path_50" data-name="Path 50" d="M355.114,289.507l-5.979-1.918a.405.405,0,1,0-.248.772l5.979,1.918a.405.405,0,0,0,.248-.772Z" transform="translate(-346.118 -287.57)" fill="#fff"/>
                <path id="Path_51" data-name="Path 51" d="M351.821,290.308l-3.226-1.036a.405.405,0,0,0-.248.772l3.226,1.034a.4.4,0,1,0,.248-.771Z" transform="translate(-346.2 -287.315)" fill="#fff"/>
                <path id="Path_52" data-name="Path 52" d="M351.282,291.991l-3.228-1.036a.405.405,0,0,0-.248.772l3.228,1.034a.4.4,0,1,0,.248-.771Z" transform="translate(-346.282 -287.059)" fill="#fff"/>
                <path id="Path_53" data-name="Path 53" d="M350.71,293.774l-3.228-1.034a.405.405,0,0,0-.248.772l3.228,1.034a.405.405,0,0,0,.248-.772Z" transform="translate(-346.369 -286.788)" fill="#fff"/>
                <path id="Path_54" data-name="Path 54" d="M350.2,295.356l-3.227-1.034a.405.405,0,1,0-.248.772l3.226,1.034a.405.405,0,1,0,.248-.772Z" transform="translate(-346.446 -286.548)" fill="#fff"/>
              </g>
              <g id="Group_24" data-name="Group 24" transform="translate(0 68.439)">
                <path id="Path_55" data-name="Path 55" d="M352.392,298l-5.979-1.918a.405.405,0,1,0-.248.772l5.979,1.918a.405.405,0,0,0,.248-.772Z" transform="translate(-343.397 -296.058)" fill="#fff"/>
                <path id="Path_56" data-name="Path 56" d="M349.1,298.795l-3.226-1.034a.405.405,0,0,0-.248.772l3.228,1.034a.405.405,0,1,0,.247-.772Z" transform="translate(-343.479 -295.803)" fill="#fff"/>
                <path id="Path_57" data-name="Path 57" d="M348.56,300.478l-3.228-1.034a.405.405,0,1,0-.246.772l3.226,1.034a.405.405,0,0,0,.248-.772Z" transform="translate(-343.561 -295.547)" fill="#fff"/>
                <path id="Path_58" data-name="Path 58" d="M347.988,302.262l-3.228-1.034a.405.405,0,0,0-.248.772l3.228,1.034a.405.405,0,0,0,.248-.772Z" transform="translate(-343.648 -295.276)" fill="#fff"/>
                <path id="Path_59" data-name="Path 59" d="M347.48,303.844l-3.226-1.034a.405.405,0,0,0-.248.772l3.228,1.034a.405.405,0,1,0,.246-.772Z" transform="translate(-343.725 -295.036)" fill="#fff"/>
              </g>
            </g>
          </g>
          <g id="Group_27" data-name="Group 27" transform="translate(25.749 23.208)">
            <path id="Path_60" data-name="Path 60" d="M374.807,249.5l-3-.3A1.657,1.657,0,0,0,370,250.69l-.813,8.245,6.3.621.813-8.244A1.658,1.658,0,0,0,374.807,249.5Z" transform="translate(-361.256 -249.196)" fill="#f2ec22"/>
            <path id="Path_61" data-name="Path 61" d="M366.251,321.99l6.445-15.166-9.8-.967Z" transform="translate(-362.212 -240.59)" fill="#a7a7a7"/>
            <path id="Path_62" data-name="Path 62" d="M366.276,320.652l5.906-13.9-4.492-.443Z" transform="translate(-361.698 -240.521)" fill="#dbd8d5"/>
            <path id="Path_63" data-name="Path 63" d="M366.85,319.091l5.246-12.343-3.989-.394Z" transform="translate(-361.611 -240.514)" fill="#7c7b79"/>
            <rect id="Rectangle_8" data-name="Rectangle 8" width="58.613" height="10.007" rx="1.507" transform="translate(0.482 66.479) rotate(-84.366)" fill="#23538c"/>
            <path id="Path_64" data-name="Path 64" d="M368.283,257.976l-5.413,54.875a1.736,1.736,0,0,0,1.557,1.9l3.124.307,5.753-58.329-3.124-.309A1.735,1.735,0,0,0,368.283,257.976Z" transform="translate(-362.217 -248.1)" fill="#144270"/>
            <path id="Path_65" data-name="Path 65" d="M380.778,261.642l-13.6-1.341a.516.516,0,0,0-.566.464l-.5,5.066a.518.518,0,0,0,.464.567l11.7,1.154a.518.518,0,0,1,.465.567l-1.025,10.391a.52.52,0,0,1-.567.465l-.278-.028a.517.517,0,0,0-.547.662l1.649,5.58a.519.519,0,0,0,1.014-.1l1.706-17.3.551-5.582A.518.518,0,0,0,380.778,261.642Z" transform="translate(-361.724 -247.51)" fill="#f2ec22"/>
            <path id="Path_66" data-name="Path 66" d="M365.89,320.255l1.19-2.8-1.81-.178Z" transform="translate(-361.851 -238.855)" fill="#0e2142"/>
            <path id="Path_67" data-name="Path 67" d="M373.1,304.605l-9.915-.978a.555.555,0,0,0-.608.5l-.27,2.886a.555.555,0,0,0,.5.6l9.915.978a.555.555,0,0,0,.608-.5l.27-2.884A.555.555,0,0,0,373.1,304.605Z" transform="translate(-362.302 -240.929)" fill="#0e2142"/>
          </g>
          <g id="Group_29" data-name="Group 29" transform="translate(0 32.391)">
            <path id="Path_68" data-name="Path 68" d="M353.251,269.2,342.592,272l11.892,45.469a3.934,3.934,0,0,0,.838,1.58l7.1,8.151a.345.345,0,0,0,.6-.158l2.172-10.588a3.921,3.921,0,0,0-.05-1.788Z" transform="translate(-339.547 -255.34)" fill="#fcd7a3"/>
            <path id="Path_69" data-name="Path 69" d="M360.161,320.105a.345.345,0,0,0,.6-.158l.824-4.015-4.116,1.082Z" transform="translate(-337.287 -248.242)" fill="#0f2145"/>
            <path id="Path_70" data-name="Path 70" d="M349.23,270.012l-3.554.934L357.6,316.521a1.837,1.837,0,0,0,3.552-.934Z" transform="translate(-339.078 -255.217)" fill="#fff"/>
            <g id="Group_28" data-name="Group 28" transform="translate(3.045 13.861)">
              <path id="Path_71" data-name="Path 71" d="M352.313,269.2l-3.552.934,11.92,45.574a1.837,1.837,0,0,0,3.554-.934Z" transform="translate(-341.655 -269.201)" fill="#f23436"/>
              <path id="Path_72" data-name="Path 72" d="M346.144,270.823l-3.552.934,11.92,45.575a1.837,1.837,0,0,0,3.554-.934Z" transform="translate(-342.592 -268.955)" fill="#f23436"/>
            </g>
            <path id="Path_73" data-name="Path 73" d="M346.241,257.289l-3.552.934a3.673,3.673,0,0,0-2.618,4.488l2.5,9.528,10.66-2.8-2.505-9.528A3.675,3.675,0,0,0,346.241,257.289Z" transform="translate(-339.948 -257.168)" fill="#fe6f71"/>
            <rect id="Rectangle_9" data-name="Rectangle 9" width="11.021" height="4.676" transform="translate(2.075 12.972) rotate(-14.731)" fill="#0f2145"/>
          </g>
        </g>
        <path id="Path_74" data-name="Path 74" d="M331.226,369.743a6.247,6.247,0,0,0,6.247,6.247h45.421a6.247,6.247,0,0,0,6.247-6.247v-77.2H331.226Z" transform="translate(-331.226 -219.404)" fill="url(#linear-gradient-9)"/>
        <path id="Path_75" data-name="Path 75" d="M356.8,375.99h22.21a6.247,6.247,0,0,0,6.247-6.247v-77.2H356.8Z" transform="translate(-327.342 -219.404)" fill="#d3d3d3" style="mix-blend-mode: multiply;isolation: isolate"/>
        <path id="Path_76" data-name="Path 76" d="M371.492,375.99h5.286a6.247,6.247,0,0,0,6.247-6.247v-77.2H371.492Z" transform="translate(-325.11 -219.404)" fill="#d3d3d3" style="mix-blend-mode: multiply;isolation: isolate"/>
      </g>
      <path id="Rectangle_10" data-name="Rectangle 10" d="M.925,0H59.161a.925.925,0,0,1,.925.925V5.414a.926.926,0,0,1-.926.926H.925A.925.925,0,0,1,0,5.414V.925A.925.925,0,0,1,.925,0Z" transform="translate(0 71.707)" fill="#fff"/>
    </g>
    <g id="Group_33" data-name="Group 33" transform="translate(69.218 0)">
      <path id="Path_77" data-name="Path 77" d="M226.8,315.1l-10.826,51.453h86.3L291.445,315.1Z" transform="translate(-155.67 -171.547)" fill="#dbd9dd"/>
      <rect id="Rectangle_11" data-name="Rectangle 11" width="206.903" height="157.602" rx="7.367" fill="#1b4e9b"/>
      <path id="Path_78" data-name="Path 78" d="M163.622,321.9a8.486,8.486,0,0,0,8.486,8.486H362.039a8.486,8.486,0,0,0,8.486-8.486V306.949h-206.9Z" transform="translate(-163.622 -172.785)" fill="#fff"/>
      <rect id="Rectangle_12" data-name="Rectangle 12" width="197.204" height="114.766" transform="translate(4.849 11.315)" fill="url(#linear-gradient-11)"/>
      <path id="Path_79" data-name="Path 79" d="M365.036,315.066V200.3h-197.2Z" transform="translate(-162.982 -188.984)" fill="#d7f4f9"/>
      <path id="Path_80" data-name="Path 80" d="M314.543,354.49H208.132a6.744,6.744,0,1,0,0,13.489H314.543a6.744,6.744,0,1,0,0-13.489Z" transform="translate(-157.886 -165.564)" fill="#fff"/>
    </g>
    <g id="Group_36" data-name="Group 36" transform="translate(62.738 88.311)">
      <g id="Group_34" data-name="Group 34">
        <rect id="Rectangle_13" data-name="Rectangle 13" width="60.699" height="114.184" rx="4.499" fill="url(#linear-gradient-12)"/>
        <rect id="Rectangle_14" data-name="Rectangle 14" width="54.392" height="93.804" transform="translate(3.153 6.878)" fill="url(#linear-gradient-11)"/>
        <path id="Path_81" data-name="Path 81" d="M215.126,366.917v-93.8H160.734Z" transform="translate(-157.58 -266.235)" fill="#d7f4f9"/>
      </g>
      <ellipse id="Ellipse_1" data-name="Ellipse 1" cx="25.054" cy="25.054" rx="25.054" ry="25.054" transform="translate(5.296 32.038)" fill="#fff"/>
      <g id="Group_35" data-name="Group 35" transform="translate(17.535 39.424)">
        <path id="Path_82" data-name="Path 82" d="M173.219,305.536l.04,27.808,20.521-.2,5.067-3.161V301.368H177.381A4.162,4.162,0,0,0,173.219,305.536Z" transform="translate(-173.219 -301.368)" fill="#27bfe2"/>
        <path id="Path_83" data-name="Path 83" d="M173.219,305.536l.04,27.808,4.318-.042V301.368h-.2A4.161,4.161,0,0,0,173.219,305.536Z" transform="translate(-173.219 -301.368)" fill="#0cacc6"/>
        <path id="Path_84" data-name="Path 84" d="M173.254,329.57a3.36,3.36,0,0,0,3.36,3.36h22.228v-.443a2.93,2.93,0,0,1,0-5.832v-.444H176.614A3.36,3.36,0,0,0,173.254,329.57Z" transform="translate(-173.214 -297.595)" fill="#028b99"/>
        <path id="Path_85" data-name="Path 85" d="M173.626,329.513a2.935,2.935,0,0,0,2.932,2.932h22.228v-.015a2.93,2.93,0,0,1,0-5.832v-.015H176.558A2.934,2.934,0,0,0,173.626,329.513Z" transform="translate(-173.157 -297.538)" fill="#fcfcd4"/>
      </g>
    </g>
    <g id="Group_41" data-name="Group 41" transform="translate(122.964 160.632)">
      <g id="Group_37" data-name="Group 37" transform="translate(0 30.312)">
        <path id="Path_86" data-name="Path 86" d="M210.281,361.354a5.112,5.112,0,0,0,5.112,5.112h33.826v-.674a4.46,4.46,0,0,1,0-8.876v-.674H215.393A5.112,5.112,0,0,0,210.281,361.354Z" transform="translate(-210.281 -356.242)" fill="#84d2e6"/>
        <path id="Path_87" data-name="Path 87" d="M210.847,361.268a4.465,4.465,0,0,0,4.46,4.46h33.826v-.022a4.46,4.46,0,0,1,0-8.876v-.022H215.307A4.465,4.465,0,0,0,210.847,361.268Z" transform="translate(-210.195 -356.156)" fill="#fcfcd4"/>
      </g>
      <g id="Group_38" data-name="Group 38" transform="translate(2.731 20.208)">
        <path id="Path_88" data-name="Path 88" d="M212.652,352.582a5.111,5.111,0,0,0,5.112,5.112h33.826v-.674a4.459,4.459,0,0,1,0-8.875v-.675H217.764A5.112,5.112,0,0,0,212.652,352.582Z" transform="translate(-212.652 -347.47)" fill="#dd4536"/>
        <path id="Path_89" data-name="Path 89" d="M213.218,352.5a4.465,4.465,0,0,0,4.46,4.46H251.5v-.022a4.459,4.459,0,0,1,0-8.875v-.022H217.678A4.464,4.464,0,0,0,213.218,352.5Z" transform="translate(-212.566 -347.384)" fill="#fcfcd4"/>
      </g>
      <g id="Group_39" data-name="Group 39" transform="translate(7.022 10.104)">
        <path id="Path_90" data-name="Path 90" d="M216.377,343.811h0a5.112,5.112,0,0,0,5.112,5.112h33.828v-.674a4.46,4.46,0,0,1,0-8.876V338.7H221.489A5.112,5.112,0,0,0,216.377,343.811Z" transform="translate(-216.377 -338.699)" fill="#2bb673"/>
        <path id="Path_91" data-name="Path 91" d="M216.944,343.725a4.465,4.465,0,0,0,4.459,4.46h33.828v-.022a4.46,4.46,0,0,1,0-8.876v-.022H221.4A4.465,4.465,0,0,0,216.944,343.725Z" transform="translate(-216.291 -338.613)" fill="#fcfcd4"/>
      </g>
      <g id="Group_40" data-name="Group 40" transform="translate(2.471)">
        <path id="Path_92" data-name="Path 92" d="M212.426,335.039a5.111,5.111,0,0,0,5.112,5.112h33.826v-.674a4.459,4.459,0,0,1,0-8.875v-.675H217.538A5.112,5.112,0,0,0,212.426,335.039Z" transform="translate(-212.426 -329.927)" fill="#1c75bc"/>
        <path id="Path_93" data-name="Path 93" d="M212.992,334.953a4.465,4.465,0,0,0,4.46,4.46h33.826v-.022a4.459,4.459,0,0,1,0-8.875v-.022H217.452A4.465,4.465,0,0,0,212.992,334.953Z" transform="translate(-212.34 -329.841)" fill="#fcfcd4"/>
      </g>
    </g>
    <g id="Group_43" data-name="Group 43" transform="translate(219.065 41.383)">
      <path id="Path_94" data-name="Path 94" d="M295.636,265.425c-.449,1.241-2.244,7.892.382,8.569s3.844.759,7.518-1.16,8.524-26.323,8.524-26.323-5.291.707-8.636,3.66S296.084,264.183,295.636,265.425Z" transform="translate(-293.571 -223.348)" fill="#14035b"/>
      <g id="Group_42" data-name="Group 42" transform="translate(1.015 69.542)">
        <path id="Path_95" data-name="Path 95" d="M314.583,364.823a34.641,34.641,0,0,0-.834-5.736l-5.781-.01s-9.5,3.915-11.245,4.483a3.257,3.257,0,0,0-2.131,3.054c-.116.925,6.994,1.864,8.347,1.6s3.066-1.385,3.391-1.312.688.968.688.968,6.908.032,7.38-.181S314.5,366.391,314.583,364.823Z" transform="translate(-294.591 -275.793)" fill="#0e0e30"/>
        <path id="Path_96" data-name="Path 96" d="M328.051,366.212a34.676,34.676,0,0,0-.834-5.736l-5.783-.009s-9.5,3.915-11.244,4.482A3.254,3.254,0,0,0,308.06,368c-.117.926,6.994,1.864,8.347,1.6s3.066-1.385,3.391-1.313.688.968.688.968,6.908.032,7.379-.181S327.965,367.779,328.051,366.212Z" transform="translate(-292.545 -275.582)" fill="#0e0e30"/>
        <path id="Path_97" data-name="Path 97" d="M326.428,328.094c.252-5.318,2.216-35.478,1.83-39.13s-25.738-1.633-25.738-1.633-4.4,34.476-5.006,43.189,6.883,40.568,7.616,40.828,8.744-.074,8.784-.924-6.045-34.406-5.5-38,5.626-30.6,5.626-30.6,1.557,27.766,1.466,29.681S318.879,372.73,319.8,373s9.313.038,9.53-.589S326.175,333.414,326.428,328.094Z" transform="translate(-294.152 -286.775)" fill="url(#linear-gradient-14)"/>
        <path id="Path_98" data-name="Path 98" d="M313.239,301.206a6.89,6.89,0,0,1,.256-1.362,6.886,6.886,0,0,0-4.414,4.961c-.757,3.811-2.573,20.265-3.785,22.69s-4.995,3.291-4.087,4.677,2.573.519,3.784,5.543,5.148,23.729,4.542,26.673c-.356,1.729-2.01,3.575-2.891,5.052,2.6-.052,6.7-.393,6.727-1,.041-.851-6.045-34.406-5.5-38C308.34,327.33,312.2,306.71,313.239,301.206Z" transform="translate(-293.607 -284.79)" fill="#14035b"/>
        <path id="Path_99" data-name="Path 99" d="M325.887,328.094c.252-5.318,2.216-35.478,1.83-39.13s-25.738-1.633-25.738-1.633-.385,3.006-.939,7.454c1.921,1.531,4.456,3,7.135,3,5.6,0,13.019-2.078,14.078,3.638s-1.666,24.768-.757,32.736,3.935,30.658,3.633,34.468c-.205,2.577-2.965,3.412-3.61,4.487,2.794-.007,7.113-.252,7.267-.7C329,371.786,325.634,333.414,325.887,328.094Z" transform="translate(-293.611 -286.775)" fill="#d3d3d3" style="mix-blend-mode: multiply;isolation: isolate"/>
      </g>
      <path id="Path_100" data-name="Path 100" d="M320.494,245.942a17.291,17.291,0,0,0-10.808,1.362,10.086,10.086,0,0,0-5.966,7.987c-.248,1.98-.612,4.564-1.142,7.722-1.367,8.154-1.688,32.918-1.688,32.918s-.115,2.427,10.717,3.626,17.629-1.92,17.629-1.92-.22-18.633.87-28.831C331.561,255.2,328.788,247.912,320.494,245.942Z" transform="translate(-292.618 -223.491)" fill="#fff5cf"/>
      <path id="Path_101" data-name="Path 101" d="M316.882,245.905A12.078,12.078,0,0,0,310.4,247s-2.2,1.174-2.382,2.7,1.062,2.623,3.412,2.682,3.942.165,5.733-.983,3.02-3.5,2.839-4.181S319.313,246.166,316.882,245.905Z" transform="translate(-291.539 -223.451)" fill="#230482"/>
      <path id="Path_102" data-name="Path 102" d="M301.653,253.661A3.476,3.476,0,0,0,298.145,256c-.419,1.511-1.64,4.786-1.64,4.786a38.863,38.863,0,0,0,3.787,1.189,13.881,13.881,0,0,0,.795-2.792c.092-.348.433-.37,1.549-.782a1.5,1.5,0,0,0,.987-1.547s1.238.607,1.9.279S303.2,253.678,301.653,253.661Z" transform="translate(-293.285 -222.262)" fill="#ffc2a9"/>
      <path id="Path_103" data-name="Path 103" d="M297.2,258.785a14.554,14.554,0,0,0-3.316,6.83c-.852,4.3,1.615,7.768,4.794,6.692s3.532-11.34,3-11.806A30.893,30.893,0,0,0,297.2,258.785Z" transform="translate(-293.709 -221.484)" fill="url(#linear-gradient-14)"/>
      <rect id="Rectangle_15" data-name="Rectangle 15" width="6.134" height="11.054" rx="0.791" transform="translate(5.558 31.389) rotate(-12.292)" fill="#0e0e30"/>
      <path id="Path_104" data-name="Path 104" d="M307.826,261.239c-.827-1.53-1.167-4.977-1.887-4.809s.029,3.345-.324,3.55-2.152-.351-3.429-1.305-2.611-2.818-2.74-1.957c-.112.748,1.114,2.284,1.435,2.671l.078.093s-.03-.035-.078-.093c-.271-.319-1.214-1.371-1.437-.784-.26.685,1.176,2.238,1.176,2.238s-1.414-1.189-1.372-.522a5.939,5.939,0,0,0,1.1,2s-.842-.8-.8-.194.653,1.663,2.589,2.454,3.91.24,5.108.9a19.922,19.922,0,0,0,2.338,1.374,28.5,28.5,0,0,0,1.389-3.07A7.542,7.542,0,0,1,307.826,261.239Z" transform="translate(-292.868 -221.843)" fill="#ffc2a9"/>
      <path id="Path_105" data-name="Path 105" d="M300.666,259c.048.059.078.093.078.093Z" transform="translate(-292.653 -221.452)" fill="#ffc2a9"/>
      <path id="Path_106" data-name="Path 106" d="M319.366,245.831c-2.065.927,1.011,4.006,2.223,10.169.936,4.769,2.593,11.649.23,12.064s-12.666-4.091-12.666-4.091l-2.553,4.786s16.572,10.236,19.943,8.961,5.019-16.481,3.877-22.674C328.867,246.611,319.366,245.831,319.366,245.831Z" transform="translate(-291.751 -223.452)" fill="url(#linear-gradient-14)"/>
      <path id="Path_107" data-name="Path 107" d="M319.366,245.831a1.06,1.06,0,0,0-.63.665c2.457.955,6.929,3,8.029,5.612,1.536,3.648,1.536,11.9,1.152,16.895s-2.687,5.567-7.871,4.032a102.55,102.55,0,0,1-12.839-5.414l-.606,1.138s16.572,10.236,19.943,8.961,5.019-16.481,3.877-22.674C328.867,246.611,319.366,245.831,319.366,245.831Z" transform="translate(-291.751 -223.452)" fill="#d3d3d3" style="mix-blend-mode: multiply;isolation: isolate"/>
      <path id="Path_108" data-name="Path 108" d="M315.41,240.571l-3.44,3.474s.427,2.193-.364,3.4-3.525,2.25-2.761,3.648,5.81,1.853,7.647.386,3.6-2.925,2.748-3.84C316.845,245.073,315.41,240.571,315.41,240.571Z" transform="translate(-291.43 -224.251)" fill="#efab92"/>
      <path id="Path_109" data-name="Path 109" d="M316.128,240.628l-4.287,3.408s.427,2.192-.364,3.4a10.418,10.418,0,0,1-1.9,1.7,5.349,5.349,0,0,0,3.37.419c2.395-.445,3.016.453,3.577,1.782,1.732-1.4,3.331-2.64,2.725-3.692A39.721,39.721,0,0,1,316.128,240.628Z" transform="translate(-291.3 -224.242)" fill="#ef9d84"/>
      <path id="Path_110" data-name="Path 110" d="M308.342,229.941a6.817,6.817,0,0,0-5.4,6.56s.076,3.108.913,4.156a7.275,7.275,0,0,1,1.661,3.009c.258,1.131,1.659,5.233,5.348,6.993s6.595-4.211,7.453-6.6.444-8.324-.917-11.024S312.531,228.816,308.342,229.941Z" transform="translate(-292.307 -225.922)" fill="#ffc2a9"/>
      <path id="Path_111" data-name="Path 111" d="M308.343,229.941a6.816,6.816,0,0,0-5.4,6.56,16.859,16.859,0,0,0,.236,2.263c2.191-.713,5.783-1.638,6.918-.473,1.673,1.716,1.5,3.747,2.478,4.161s2.4,1,2.635,2.776a5.342,5.342,0,0,1-3.677,5.668c3.369.8,5.979-4.595,6.785-6.842.858-2.394.444-8.324-.917-11.024S312.531,228.816,308.343,229.941Z" transform="translate(-292.307 -225.922)" fill="#efab92"/>
      <path id="Path_112" data-name="Path 112" d="M318.447,230.287s-1.736-4.2-5.974-3.866-9.323,4.37-11.18,4.25-3.524-.6-3.146.593,1.288,1.511,1.1,1.874-1.886-.211-.991,1.021a4.3,4.3,0,0,0,1.805,1.55,1.424,1.424,0,0,0-.386,1.334c.234.735.467,1.469,2.785,1.138a23.169,23.169,0,0,0,8.016-2.44s1.279,2.121,3.1,2.452,1.787,2.767,2.284,2.1.3-3.833,1.717-2.868.917,3.851.391,4.422c0,0,1.162,1.753,2.147,1.037s1.275-5.86.765-8.425A8.02,8.02,0,0,0,318.447,230.287Z" transform="translate(-293.058 -226.403)" fill="#0e0e30"/>
    </g>
    <g id="Group_44" data-name="Group 44" transform="translate(136.178 92.161)">
      <path id="Path_113" data-name="Path 113" d="M282.657,359.727c-4.08-.6-4.692-.179-5.28-1.785s-7.867-.49-7.867-.49a26.726,26.726,0,0,0-.849,4.9,6.524,6.524,0,0,0,.268,2.971,50.63,50.63,0,0,0,11.927.369c5.939-.627,7.409-.521,7.574-1.068a2.181,2.181,0,0,0-.088-1.836C287.968,362.347,286.737,360.328,282.657,359.727Z" transform="translate(-214.63 -257.333)" fill="#0e0e30"/>
      <path id="Path_114" data-name="Path 114" d="M247.2,290.539c-4.009.16-4.97,2.084-5.131,6.413a87.453,87.453,0,0,0,.925,11.825l8.694-.923a107.347,107.347,0,0,0-.64-11.383C250.4,291.5,247.2,290.539,247.2,290.539Z" transform="translate(-218.669 -267.439)" fill="#191f54"/>
      <path id="Path_115" data-name="Path 115" d="M248.275,318.774c-5-1.206-13.607-1.034-16.535,6.372s4.995,8.1,8.784,9.13,23.769,1.033,25.491,1.2,2.508,6.876,4.058,10.837,4.544,18.913,4.544,18.913l8.795-.985c.689-3.1-3.444-38.583-6.2-40.995S248.275,318.774,248.275,318.774Z" transform="translate(-220.332 -263.236)" fill="url(#linear-gradient-14)"/>
      <path id="Path_116" data-name="Path 116" d="M247.25,318.774a19.144,19.144,0,0,0-9.4.058c1.473.625,3.984,1.014,8.882.8,0,0,20.67,1.379,23.425,3.445s4.978,6.213,5.495,11.553c.416,4.288,3.519,24.744,3.973,29.882l2.762-.27c.689-3.1-1.378-36.516-6.2-40.995C270.651,318.11,247.25,318.774,247.25,318.774Z" transform="translate(-219.307 -263.235)" fill="#d3d3d3" style="mix-blend-mode: multiply;isolation: isolate"/>
      <path id="Path_117" data-name="Path 117" d="M261.039,364.647c-3.989-1.048-5-1.229-5.4-2.891s-7.765-1.356-7.765-1.356a26.743,26.743,0,0,0-1.385,4.777,6.523,6.523,0,0,0-.061,2.982,50.666,50.666,0,0,0,11.813,1.683c5.973.032,7.427-.276,7.651-.8s.46-.941.136-1.42S265.027,365.7,261.039,364.647Z" transform="translate(-218.023 -256.831)" fill="#0e0e30"/>
      <path id="Path_118" data-name="Path 118" d="M231.272,319.818a4.939,4.939,0,0,0-4.066,2.149c-1.789,2.585-3.839,6.91.05,9.5,5.822,3.881,29.1,2.773,29.382,4.158s-6.424,32.3-6.424,32.3,6.978,1.235,8.641.681,12.75-36.035,11.087-42.688C268.526,320.263,239.78,319.824,231.272,319.818Z" transform="translate(-221.253 -262.992)" fill="url(#linear-gradient-14)"/>
      <path id="Path_119" data-name="Path 119" d="M269.408,325.408c-.032-.058-.085-.111-.123-.167a2.928,2.928,0,0,0-.243-.323c-.062-.067-.145-.129-.215-.195a3.954,3.954,0,0,0-.3-.265c-.087-.067-.194-.129-.29-.195-.118-.079-.227-.16-.358-.237-.108-.063-.236-.123-.354-.185-.138-.074-.271-.149-.42-.219-.129-.06-.273-.116-.41-.174-.159-.069-.312-.138-.483-.2-.147-.056-.309-.109-.464-.164-.177-.063-.349-.128-.537-.188-.167-.054-.347-.1-.521-.156-.192-.058-.379-.116-.581-.172s-.385-.1-.578-.149-.4-.1-.613-.154-.421-.093-.631-.141-.423-.094-.643-.139-.44-.085-.661-.128-.456-.089-.69-.131-.46-.078-.69-.116-.475-.082-.719-.12-.49-.074-.735-.11-.486-.073-.735-.107-.5-.066-.745-.1-.513-.067-.773-.1-.506-.059-.759-.089-.526-.061-.792-.09l-.775-.081c-.27-.027-.538-.055-.81-.081s-.528-.05-.792-.073l-.8-.071q-.406-.035-.813-.066c-.267-.022-.534-.044-.8-.063s-.538-.039-.806-.058l-.809-.056-.817-.051q-.4-.026-.791-.048c-.266-.016-.531-.03-.8-.045l-.8-.043-.776-.038-.784-.036-.79-.033-.743-.03-.769-.028c-.243-.008-.486-.017-.725-.024s-.5-.016-.741-.023-.475-.015-.707-.021l-.695-.018-.692-.016-.661-.014-.646-.013-.626-.01-.619-.009-.578-.008-.571-.006-.508,0-.56,0-.465,0-.449,0h-.676a4.914,4.914,0,0,0-3.8,1.819c.46,1.647,1.059,2.122,6.2,3.407,7.965,1.991,21.379,3.144,24.627,3.248s5.879,1.86,6.508,6.052-2.2,16.244-3.248,20.121-3.445,10.451-7.218,11.6a12.9,12.9,0,0,1-3.857.634c-.167.779-.265,1.23-.265,1.23s.726.128,1.761.283c.344.051.722.1,1.122.159l.187.025c.415.054.845.108,1.28.157l.161.017a13.386,13.386,0,0,0,4.131.038c1.143-.38,6.741-17.269,9.587-29.949q.2-.866.371-1.7a66.763,66.763,0,0,0,1.2-7.315,12.244,12.244,0,0,0-.069-3.722A1.968,1.968,0,0,0,269.408,325.408Z" transform="translate(-220.933 -262.992)" fill="#d3d3d3" style="mix-blend-mode: multiply;isolation: isolate"/>
      <path id="Path_120" data-name="Path 120" d="M251.831,293.733c-2.043-4.9-5.45-5.858-11.036-6.4,0,0-6.266.136-10.218,4.769s-7.357,27.249-7.357,31.745-.348,10.846,3.74,12.345-1.417-6.769,23.77-12.751c0,0-3.646-7.559-1.842-14.556C250.349,303.207,253.874,298.638,251.831,293.733Z" transform="translate(-221.53 -267.926)" fill="#ffd322"/>
      <path id="Path_121" data-name="Path 121" d="M244.96,284.591c-.374-.312-4.834-1.819-4.834-1.819s-.834,3.767-1.9,5.186c-.984,1.311-2.217,2.535-.659,4.032s6.209,3.139,6.894,1.767-.935-2.618-1-4.739S245.334,284.9,244.96,284.591Z" transform="translate(-219.463 -268.619)" fill="#e29d88"/>
      <path id="Path_122" data-name="Path 122" d="M251.418,275.458c-3.665-1.849-7.209-1.121-8.989,1.118s-3.3,7.655-2.97,10.038,1.878,8.474,5.635,7.553,5.844-4.452,6.3-5.451a6.884,6.884,0,0,1,2.117-2.468c.977-.81,1.645-3.675,1.645-3.675A6.449,6.449,0,0,0,251.418,275.458Z" transform="translate(-219.07 -269.889)" fill="#ffc2a9"/>
      <path id="Path_123" data-name="Path 123" d="M251.418,275.458c-3.665-1.849-7.209-1.121-8.989,1.118s-3.3,7.655-2.97,10.038c.314,2.237,1.693,7.741,4.969,7.644a5.056,5.056,0,0,1-2.316-5.959,3.375,3.375,0,0,1,2.977-2.065c.983-.2,1.216-2.11,3.1-3.377,1.276-.861,4.427.685,6.319,1.768a15.686,15.686,0,0,0,.653-2.052A6.448,6.448,0,0,0,251.418,275.458Z" transform="translate(-219.07 -269.889)" fill="#efab92"/>
      <path id="Path_124" data-name="Path 124" d="M254.379,274.888c-1.689-1.36-3.639-2.794-5.792-2.541l-.008-1.585a2.441,2.441,0,0,0-1.547.923,3.666,3.666,0,0,0-1.759-1.2q.311.743.623,1.485c-1.643-.445-2.559.559-3.574,1.6a9.8,9.8,0,0,0-2.457,3.04c-1.018,2.4-1.777,7.478-.961,8.378s2.3-.577,2.3-.577c-.4-.665-.3-3.581,1.277-4.236s.744,2.4,1.1,3.146.809-1.637,2.655-1.592,3.521-1.764,3.521-1.764a26.836,26.836,0,0,1,2.621,2.091,5.272,5.272,0,0,0,3.392,1.185,7.387,7.387,0,0,0,2.885-1.055,9.894,9.894,0,0,1-1.387-2.007,3.108,3.108,0,0,0,2.889-2.712C258,277.694,256.068,276.248,254.379,274.888Z" transform="translate(-219.199 -270.485)" fill="#0e0e30"/>
      <path id="Path_125" data-name="Path 125" d="M232.847,322.414l18.041,2.74,19.916-6.166.183-1.187-38.14,3.678Z" transform="translate(-220.067 -263.298)" fill="#617375"/>
      <path id="Path_126" data-name="Path 126" d="M232.847,321.677l17.98,2.452s19.617-5.824,20.026-5.824-17.164-1.8-17.164-1.8Z" transform="translate(-220.067 -263.496)" fill="#889ca0"/>
      <path id="Path_127" data-name="Path 127" d="M238.148,321.194l11.784,1.607c6.674-1.981,11.111-3.286,14.069-4.146-3.392-.354-7.642-.793-11.036-1.142Z" transform="translate(-219.262 -263.342)" fill="#617375"/>
      <path id="Path_128" data-name="Path 128" d="M256.558,314.888c-1.338-.256-5.1-4.337-5.484-5.165a17.479,17.479,0,0,1-.313-4.117l-5.258.5a43.1,43.1,0,0,0,.488,6.558c.446,1.658,7.635,3.755,8.4,4.011s0,1.4.7,1.913.829-.829,1.147-1.276.957,1.212,1.594,1.913,2.36.447,3.062,0,.382-2.168-.128-3.061S257.9,315.142,256.558,314.888Z" transform="translate(-218.145 -265.15)" fill="#ffc2a9"/>
      <path id="Path_129" data-name="Path 129" d="M249.884,312.013a6.11,6.11,0,0,1-1.974-6.172l-2.407.228a43.215,43.215,0,0,0,.487,6.558c.447,1.658,7.636,3.755,8.4,4.011s0,1.4.7,1.913.829-.829,1.148-1.276.956,1.212,1.593,1.913,2.36.447,3.062,0c.516-.328.477-1.348.219-2.22C257.729,315.8,252.441,314,249.884,312.013Z" transform="translate(-218.145 -265.115)" fill="#efab92"/>
      <path id="Path_130" data-name="Path 130" d="M245.429,314.908c-1.908-.409-16.754-4.9-17.163-6.13s2.043-4.359,2.043-4.359l-6.538-1.635s-2.861,5.993-1.772,8.991,10.625,4.087,18.117,4.9l3.678.954a4.205,4.205,0,0,0,2.588,2.043c1.77.408,3.059.219,3.814.817s1.635,2.043,2.043,1.635a8.749,8.749,0,0,0,.953-5.175C252.785,315.18,247.337,315.317,245.429,314.908Z" transform="translate(-221.752 -265.579)" fill="#ffc2a9"/>
      <path id="Path_131" data-name="Path 131" d="M246.447,317.172c-.639-1.28-17.073-4.268-20.7-5.762-2.754-1.134-1.207-5.948-.3-8.207l-1.675-.419s-2.861,5.993-1.772,8.991,10.625,4.087,18.117,4.9l3.678.954a4.21,4.21,0,0,0,2.588,2.043c1.77.408,3.059.219,3.814.817s1.635,2.043,2.043,1.635a7.583,7.583,0,0,0,.935-2.852C251.222,318.535,246.957,318.189,246.447,317.172Z" transform="translate(-221.752 -265.579)" fill="#efab92"/>
      <path id="Path_132" data-name="Path 132" d="M233.764,289.422c-6.674.408-11.442,15.665-11.442,15.665l8.31,3.4s7.083-9.4,7.083-14.166S233.764,289.422,233.764,289.422Z" transform="translate(-221.666 -267.609)" fill="#191f54"/>
      <path id="Path_133" data-name="Path 133" d="M275.4,302.622,256.243,307.3a1.963,1.963,0,0,0-1.38,1.238l-6.407,17.7,20.16-6.13,7.529-16.414C276.486,302.976,276,302.475,275.4,302.622Z" transform="translate(-217.696 -265.608)" fill="#617375"/>
      <path id="Path_134" data-name="Path 134" d="M275.74,303l-19.157,4.677a1.965,1.965,0,0,0-1.38,1.238l-6.407,17.7,20.16-6.129,7.183-17.02A.345.345,0,0,0,275.74,303Z" transform="translate(-217.644 -265.547)" fill="#889ca0"/>
    </g>
  </g>
</svg>
